<svg xmlns="http://www.w3.org/2000/svg" width="636.63" height="240" viewBox="0 0 636.63 240"><path d="M157.88 238.67h84v-39.28h-44.55V42.16h44.55V2.77h-84v235.9zM78.44 42.25v156.93a.48.48 0 0 0 .2.07h38.32c.27 0 .59.11.77-.14V42.19H80c-.52 0-1 0-1.56.06zm-.38 157.22H40.12c-.28 0-.58.08-.81-.18V42.06h37.93c.49 0 1 0 1.47-.07V2.79H0v235.86h78.68v-37.89a2.62 2.62 0 0 1 .11-1.33c-.23.01-.48.04-.73.04zM304.25 72.59a47.27 47.27 0 0 0 9-.7c11.83-2.29 20.39-8.67 24.64-20.15a41.4 41.4 0 0 0 1-24.77A30.23 30.23 0 0 0 326.5 8.71c-6.25-4.31-13.31-5.92-20.78-6-8-.06-15.91 0-23.87 0-.35 0-.74-.14-1.08.16v69.7h23.48v.02zm-9.81-12.63V15.41h2.87c3.95.1 7.91-.29 11.84.32 8.59 1.33 14.63 7 16.3 15.63 1.23 6.32 1 12.56-2.06 18.4-3.22 6.16-8.62 9.23-15.37 10-4.47.48-9 .09-13.58.2zm140.2-43.73a8.12 8.12 0 1 0-8-8.14 8.11 8.11 0 0 0 8 8.14zM494 70.74c5 3.44 10.56 3.84 16.3 2.21a15 15 0 0 0 8.32-6.06c.076 1.838.274 3.668.59 5.48h12c-.89-6.44-.51-12.86-.57-19.26 0-4.28.08-8.57 0-12.85-.17-7-2.93-12.55-9.5-15.46a26.22 26.22 0 0 0-21.47-.3 17.31 17.31 0 0 0-10.92 14l11.66 2.5c.77-3.79 2.32-6 5.11-7.08a11.25 11.25 0 0 1 8.44 0 5.72 5.72 0 0 1 3.57 3.68c.92 2.82-.22 4.72-3.14 5.18-2.23.35-4.48.63-6.71 1-3.36.57-6.8.74-10 2-5.16 1.95-8.77 5.35-9.64 11A13.5 13.5 0 0 0 494 70.74zm10.53-17.69a18.77 18.77 0 0 1 4.81-1c2.6-.41 5.2-.79 7.81-1.19.19 0 .4 0 .71-.06 0 4.12 0 8.21-3.6 11.07a10.51 10.51 0 0 1-9.36 1.83 5.21 5.21 0 0 1-3.93-5 5.58 5.58 0 0 1 3.56-5.65zm-76.31 19.32h13V24h-13v48.37zm-79.85 0h13V24h-13v48.37zm6.45-56.14a8 8 0 0 0 8.08-8.07 8.07 8.07 0 1 0-16.13.07 8.11 8.11 0 0 0 8.05 8zM395.93 70a14.78 14.78 0 0 0 9.7-5.6c.221 2.822.036 5.66-.55 8.43a10.05 10.05 0 0 1-7.44 7.65 17.92 17.92 0 0 1-2.91.52c-4.43.39-8.36-.58-11.21-4.3a11.75 11.75 0 0 1-2-4.77L369.83 75a1.589 1.589 0 0 0-.08.42c.036.337.093.67.17 1a19.68 19.68 0 0 0 10.73 13.28c7.24 3.69 14.82 3.78 22.45 1.47a20.48 20.48 0 0 0 13-11.48A27.59 27.59 0 0 0 418.6 68c.04-14.247.04-28.5 0-42.76a2.13 2.13 0 0 0-.16-1.25H406v5.42a12.36 12.36 0 0 0-4.55-4.25c-6.7-3.59-18.38-3-25.45 4.93-5.78 6.48-7.37 14.1-5.66 22.44 2.321 11.839 13.719 19.62 25.59 17.47zm-6.41-34.35v.05c8.07-3.73 16.36 2 16.36 11.12 0 5.86-3.06 10.37-7.95 11.76-7.85 2.22-14.87-3-15-11.17-.09-5.22 1.66-9.48 6.59-11.76zm72.66 74.97c-6.13-.61-11.63.74-15.86 5.58-.6.69-1.14 1.43-1.74 2.18-3-5.56-7.89-7.76-13.82-7.87a17 17 0 0 0-14.73 7v-5.62h-12.4v48.29h13.09V142c0-3.58-.13-7.17 0-10.75.35-8.2 8-10.44 13.24-7.91 3.27 1.59 4.21 4.66 4.22 7.97v27.43c-.099.486-.04.99.17 1.44h12.95V132a11.25 11.25 0 0 1 .4-3.17 8.55 8.55 0 0 1 8.78-6.37c4.18.08 7 2.22 7.91 6.09.257 1.125.374 2.277.35 3.43v26.94a2.46 2.46 0 0 0 .09 1.25h12.58c.029-.155.049-.312.06-.47v-31.64a19 19 0 0 0-2.21-9.13c-2.83-5.16-7.36-7.73-13.08-8.31zM317.7 161.38c10.65-1.39 18.77-6.68 24.09-16.07a25 25 0 0 0 2.83-7.33L332 134.17c-3 8.62-8.83 13.45-17.93 14.19a21 21 0 0 1-21.36-12.83 26.38 26.38 0 0 1 .1-20.68c5.52-13.18 20.91-15.41 30.35-9.95 4.32 2.5 6.85 6.4 8.2 11.34l12.79-4a7.199 7.199 0 0 0-.14-.82 28.89 28.89 0 0 0-12.75-17.32c-8.05-5-16.88-6.15-26-4.38-11.46 2.23-19.92 8.65-25 19.22a38.17 38.17 0 0 0-3.14 22.63c1.41 10.15 6.16 18.43 14.77 24.16 7.83 5.25 16.55 6.86 25.81 5.65zm235.54-89.03V2.74h-13v69.68h12.6c.135-.013.269-.036.4-.07zm-37.2 38.42c-6.22-.32-11.86 1.15-16 6.32 0 0-.14 0-.36-.05v-5.2h-12.59v67h13.07v-23.11a14.47 14.47 0 0 0 5.66 4.12c9 3.62 21.94 1.45 28-10.25 3.17-6.16 3.78-12.7 2.68-19.45-1.64-10.12-8.24-18.75-20.46-19.38zm4.88 34.81c-2.92 3.58-6.87 4.73-11.32 3.86-4.68-.92-7.52-4-9-8.42a17.78 17.78 0 0 1-.7-4.69c.1-4.33 1.1-8.04 4.16-10.77v-.03c4.761-4.385 12.176-4.08 16.56.682a11.72 11.72 0 0 1 2.9 5.788c1.05 4.83.67 9.56-2.6 13.58zm111.38-9.88h.02a20 20 0 0 0-9.75-4.73c-2.69-.59-5.4-1.11-8.08-1.77a4.22 4.22 0 0 1-3.52-3.66 4.54 4.54 0 0 1 2.67-4.37 8.51 8.51 0 0 1 9.31 1.33 8.68 8.68 0 0 1 2.19 4.34l10.86-2.45a14.07 14.07 0 0 0-3-7.34c-3.17-4-7.51-5.92-12.46-6.48-6.6-.74-12.64.46-17.48 5.43-5.31 5.45-5.58 14.25-.57 19.57 2.85 3 6.59 4.37 10.54 5.28a57.811 57.811 0 0 1 8 2c2.19.87 3.15 2.35 3 4.3a4.57 4.57 0 0 1-3.56 4.09c-5.53 1.74-10.3-1.07-11.72-6.95l-11.19 2.46a16.17 16.17 0 0 0 5.44 10.1c3.75 3.32 8.27 4.63 13.16 4.86 5.35.25 10.43-.61 14.78-4.05 6.99-5.54 7.65-16.01 1.36-21.96zm-250.67 19.45c.08-.1.16-.17.34 0 .13 1.42.28 2.89.4 4.36 0 .45.12.79.7.79h11.45c-.19-2.38-.52-4.65-.52-6.95v-24.71c0-8.24-4.12-14.31-11.48-16.77a28.23 28.23 0 0 0-17.25-.35 18.31 18.31 0 0 0-11.06 8.48 13.26 13.26 0 0 0-2 6.38l11.56 2.44c.55-3.69 2.39-6.23 5.88-7.35a11.34 11.34 0 0 1 7.28.11 6 6 0 0 1 3.81 3.44c1.19 2.91.12 5-3 5.54-2.5.45-5 .76-7.56 1.16-3.24.51-6.53.78-9.64 2-7.315 2.506-11.213 10.467-8.707 17.782a14 14 0 0 0 2.217 4.088c3.36 4.17 7.88 5.93 13.1 6.08 5.85.12 10.85-1.67 14.48-6.52zm-13.95-3.83a5.12 5.12 0 0 1-3.37-4.74 5.4 5.4 0 0 1 3.06-5.46c1.8-.94 3.8-1 5.74-1.31l8-1.25a16.58 16.58 0 0 1-1 7.8c-1.88 4.41-7.96 6.82-12.43 4.96zm112.64-90.21a29.171 29.171 0 0 1-4.49.36c-3.55-.1-5.19-1.76-5.2-5.31V36.88c0-.39-.16-.82.25-1.23h9.35V23.94h-9.63V9.62h-11.84v1.65a56.918 56.918 0 0 1-.17 6.66 6.59 6.59 0 0 1-6.45 6c-1.06.07-2.13 0-3.27 0V35.7h8.65v1.46c0 7.37-.07 14.75.08 22.12.1 4.77 1.89 8.89 6.14 11.45 5.06 3 10.49 2.93 16 1.43a.68.68 0 0 0 .58-.78V61.11zm109 50.78h-13.09v27.88c.002.861-.071 1.721-.22 2.57a8.44 8.44 0 0 1-8.24 7.15c-4.66.24-7.92-2-9.06-6.32a15.232 15.232 0 0 1-.46-3.92v-26.07a2.17 2.17 0 0 0-.14-1.31H545.3a2.71 2.71 0 0 0-.14 1.39v28.92c-.002.986.052 1.97.16 2.95 1.69 15 15.6 19 25.46 15.06a13.41 13.41 0 0 0 6.13-4.87 25.13 25.13 0 0 0 .46 4.85h12.33c-.7-16.17-.09-32.24-.38-48.28zm-207.192 94.343v-6.738h-7.448v38.585h7.61v-19.332c0-7.914 3.562-11.872 10.686-11.872 1.079 0 2.186.08 3.319.24v-8.021a12.83 12.83 0 0 0-2.51-.241c-5.397 0-9.283 2.46-11.657 7.38zm-73.993-25.027H287.25v56.874h7.933v-23.263h12.953c5.235 0 9.499-1.577 12.792-4.733 3.29-3.154 4.937-7.165 4.937-12.032 0-4.814-1.646-8.824-4.937-12.033-3.293-3.208-7.557-4.813-12.792-4.813zm6.64 23.944c-1.999 1.74-4.697 2.608-8.097 2.608h-11.496v-19.493h11.496c3.4 0 6.098.896 8.096 2.687 1.997 1.793 2.995 4.186 2.995 7.18 0 2.941-.998 5.282-2.995 7.018zm48.085 7.26c0-4.117-1.323-7.5-3.966-10.147-2.646-2.647-6.72-3.971-12.225-3.971-4.21 0-7.826 1.163-10.848 3.49-3.023 2.326-4.723 5.334-5.1 9.025l7.286 1.684c.27-2.353 1.16-4.238 2.672-5.656 1.51-1.416 3.561-2.125 6.152-2.125 2.806 0 4.91.642 6.315 1.925 1.403 1.283 2.104 2.941 2.104 4.973 0 1.659-.999 2.621-2.995 2.888l-10.525 1.525c-3.561.481-6.422 1.724-8.58 3.729-2.16 2.006-3.239 4.667-3.239 7.982 0 3.156 1.214 5.87 3.643 8.142s5.558 3.41 9.391 3.41c3.13 0 5.734-.642 7.813-1.926 2.076-1.284 3.655-2.78 4.735-4.492 0 1.872.134 3.61.405 5.214h7.448c-.324-1.925-.486-4.037-.486-6.337V212.41zm-7.61 9.146c0 3.958-1.025 6.845-3.076 8.663-2.052 1.818-4.777 2.727-8.177 2.727-1.89 0-3.414-.561-4.573-1.684-1.161-1.123-1.741-2.433-1.741-3.93 0-1.658.512-2.969 1.538-3.932s2.401-1.577 4.129-1.844l11.9-1.765v1.765zm49.14 16.524h7.529v-38.585h-7.53v38.585zm36.186-22.22l-6.314-1.364c-2.969-.642-4.452-2.192-4.452-4.652 0-1.39.607-2.594 1.82-3.61 1.216-1.015 2.766-1.524 4.656-1.524 1.457 0 2.725.227 3.805.682 1.079.455 1.902 1.056 2.469 1.804.567.75.984 1.432 1.254 2.046.27.615.458 1.243.568 1.885l6.719-2.486a13.983 13.983 0 0 0-1.214-3.13c-.54-1.014-1.35-2.112-2.429-3.288-1.08-1.176-2.59-2.125-4.533-2.848-1.944-.722-4.157-1.083-6.639-1.083-3.778 0-7.031 1.203-9.756 3.61-2.725 2.407-4.088 5.268-4.088 8.583 0 2.728.863 5.054 2.591 6.979 1.727 1.926 4.1 3.209 7.124 3.85l6.639 1.445c3.346.749 5.018 2.406 5.018 4.973 0 1.444-.593 2.66-1.78 3.65-1.188.99-2.807 1.484-4.857 1.484-2.646 0-4.75-.681-6.315-2.046-1.566-1.363-2.483-3.088-2.753-5.174l-6.881 2.407c.376 2.727 1.916 5.282 4.615 7.66 2.698 2.38 6.448 3.57 11.253 3.57 4.478 0 7.973-1.23 10.483-3.69s3.765-5.214 3.765-8.262c0-2.888-.93-5.335-2.793-7.34-1.863-2.006-4.52-3.382-7.975-4.13zm-32.463-36.419c-1.511 0-2.793.536-3.844 1.605-1.053 1.07-1.58 2.353-1.58 3.85s.527 2.767 1.58 3.81c1.051 1.043 2.333 1.565 3.844 1.565 1.511 0 2.806-.522 3.886-1.565s1.62-2.312 1.62-3.81c0-1.55-.54-2.848-1.62-3.89-1.08-1.043-2.375-1.565-3.886-1.565z" fill="#00263e"/></svg>